<svg width="15" height="13" viewBox="0 0 15 13" fill="none" xmlns="http://www.w3.org/2000/svg">
<path d="M13.8281 0.140625H11.9531V1.78125C11.9531 1.96773 11.879 2.14657 11.7472 2.27843C11.6153 2.4103 11.4365 2.48437 11.25 2.48437C11.0635 2.48437 10.8847 2.4103 10.7528 2.27843C10.621 2.14657 10.5469 1.96773 10.5469 1.78125V0.140625H4.45312V1.78125C4.45312 1.96773 4.37905 2.14657 4.24718 2.27843C4.11532 2.4103 3.93648 2.48437 3.75 2.48437C3.56352 2.48437 3.38468 2.4103 3.25282 2.27843C3.12095 2.14657 3.04688 1.96773 3.04688 1.78125V0.140625H1.17188C0.985395 0.140625 0.806552 0.214704 0.674691 0.346566C0.542829 0.478427 0.46875 0.65727 0.46875 0.84375V11.625C0.46875 11.8115 0.542829 11.9903 0.674691 12.1222C0.806552 12.254 0.985395 12.3281 1.17188 12.3281H13.8281C14.0146 12.3281 14.1934 12.254 14.3253 12.1222C14.4572 11.9903 14.5312 11.8115 14.5312 11.625V0.84375C14.5312 0.65727 14.4572 0.478427 14.3253 0.346566C14.1934 0.214704 14.0146 0.140625 13.8281 0.140625ZM14.0625 11.625C14.0625 11.6872 14.0378 11.7468 13.9939 11.7907C13.9499 11.8347 13.8903 11.8594 13.8281 11.8594H1.17188C1.10971 11.8594 1.0501 11.8347 1.00615 11.7907C0.962193 11.7468 0.9375 11.6872 0.9375 11.625V3.89062H14.0625V11.625Z" fill="#F5365C"/>
</svg>
