<svg width="20" height="20" viewBox="0 0 20 20" fill="none" xmlns="http://www.w3.org/2000/svg">
<path d="M15.6251 17.5C13.8432 17.5 12.3576 16.9606 11.5626 16.1272V17.1875C11.5626 18.4141 13.347 19.375 15.6251 19.375C17.9032 19.375 19.6876 18.4141 19.6876 17.1875V16.1272C18.8926 16.9606 17.407 17.5 15.6251 17.5Z" fill="white"/>
<path d="M15.6251 15C13.8432 15 12.3576 14.4606 11.5626 13.6272V14.6875C11.5626 15.9141 13.347 16.875 15.6251 16.875C17.9032 16.875 19.6876 15.9141 19.6876 14.6875V13.6272C18.8926 14.4606 17.407 15 15.6251 15Z" fill="white"/>
<path d="M15.6257 9.375C15.9489 9.375 16.2617 9.39344 16.5632 9.4275V6.23375C15.241 6.09375 14.2195 5.07219 14.0798 3.75H5.92167C5.78198 5.07219 4.76042 6.09375 3.43823 6.23344V9.39125C4.76042 9.53125 5.78198 10.5525 5.92167 11.8747H10.9654C11.2089 10.4297 13.1301 9.375 15.6257 9.375ZM8.12573 7.8125C8.12573 6.77687 8.96511 5.9375 10.0007 5.9375C11.0364 5.9375 11.8757 6.77687 11.8757 7.8125C11.8757 8.84812 11.0364 9.6875 10.0007 9.6875C8.96511 9.6875 8.12573 8.84812 8.12573 7.8125Z" fill="white"/>
<path d="M15.6251 10C13.347 10 11.5626 10.9609 11.5626 12.1875C11.5626 13.4141 13.347 14.375 15.6251 14.375C17.9032 14.375 19.6876 13.4141 19.6876 12.1875C19.6876 10.9609 17.9032 10 15.6251 10Z" fill="white"/>
<path d="M10.9379 12.5H5.62543C5.45293 12.5 5.31293 12.36 5.31293 12.1875C5.31293 10.9403 4.37261 10 3.12543 10C2.95293 10 2.81293 9.86 2.81293 9.6875V5.9375C2.81293 5.765 2.95293 5.625 3.12543 5.625C4.37261 5.625 5.31293 4.68469 5.31293 3.4375C5.31293 3.265 5.45293 3.125 5.62543 3.125H14.3754C14.5479 3.125 14.6879 3.265 14.6879 3.4375C14.6879 4.68469 15.6282 5.625 16.8754 5.625C17.0479 5.625 17.1879 5.765 17.1879 5.9375V9.52625C18.2639 9.74062 19.1401 10.1734 19.6879 10.7481V0.9375C19.6879 0.765 19.5479 0.625 19.3754 0.625H0.625427C0.452927 0.625 0.312927 0.765 0.312927 0.9375V14.6875C0.312927 14.86 0.452927 15 0.625427 15H10.9379V12.5Z" fill="white"/>
</svg>
