<svg width="20" height="18" viewBox="0 0 20 18" fill="none" xmlns="http://www.w3.org/2000/svg">
<path d="M12.1886 0.5625H7.81364C7.64114 0.5625 7.50114 0.7025 7.50114 0.875V17.125C7.50114 17.2975 7.64114 17.4375 7.81364 17.4375H12.1886C12.3611 17.4375 12.5011 17.2975 12.5011 17.125V0.875C12.5011 0.7025 12.3611 0.5625 12.1886 0.5625Z" fill="white"/>
<path d="M5.00073 11.8125H0.625732C0.453232 11.8125 0.313232 11.9525 0.313232 12.125V17.125C0.313232 17.2975 0.453232 17.4375 0.625732 17.4375H5.00073C5.17323 17.4375 5.31323 17.2975 5.31323 17.125V12.125C5.31323 11.9525 5.17323 11.8125 5.00073 11.8125Z" fill="white"/>
<path d="M19.3755 6.8125H15.0005C14.828 6.8125 14.688 6.9525 14.688 7.125V17.125C14.688 17.2975 14.828 17.4375 15.0005 17.4375H19.3755C19.548 17.4375 19.688 17.2975 19.688 17.125V7.125C19.688 6.9525 19.548 6.8125 19.3755 6.8125Z" fill="white"/>
</svg>
