<svg width="14" height="20" viewBox="0 0 14 20" fill="none" xmlns="http://www.w3.org/2000/svg">
<path d="M12.7685 8.94531C12.1612 8.81941 11.794 9.04583 11.5902 9.26452C11.5048 9.35627 11.3562 9.32169 11.3238 9.20053C11.173 8.63672 10.7051 8.18661 10.1071 8.1316C9.45537 8.07165 9.02211 8.39941 8.78453 8.66181C8.70013 8.75504 8.54779 8.72044 8.51714 8.59848C8.37296 8.02458 7.90046 7.56437 7.29462 7.5066C6.70852 7.45072 6.18739 7.7549 5.92666 8.2238C5.87878 8.30986 5.75024 8.28012 5.75024 8.18165V2.09167C5.75024 1.35721 5.21329 0.701331 4.48213 0.6316C3.64339 0.551625 2.93774 1.20903 2.93774 2.03125V10.9375C2.93774 11.1102 2.79797 11.25 2.62524 11.25C2.45252 11.25 2.31274 11.1102 2.31274 10.9375V9.0625H1.37524C0.684878 9.0625 0.125244 9.62213 0.125244 10.3125V14.0625C0.125244 16.0417 2.31274 17.4609 2.31274 19.0625H12.0002C12.0002 19.0625 13.8752 15.2344 13.8752 10.3125C13.8752 9.49219 13.3473 9.0653 12.7685 8.94531Z" fill="white"/>
</svg>
